<?xml version="1.0" encoding="UTF-8" standalone="no"?>
<!-- Created with Inkscape (http://www.inkscape.org/) -->

<svg
   width="8.4666662mm"
   height="8.4666662mm"
   version="1.1"
   viewBox="0 0 8.466666 8.4666665"
   xml:space="preserve"
   id="svg5"
   sodipodi:docname="987NES-logo32.svg"
   inkscape:version="1.4.2 (f4327f4, 2025-05-13)"
   xmlns:inkscape="http://www.inkscape.org/namespaces/inkscape"
   xmlns:sodipodi="http://sodipodi.sourceforge.net/DTD/sodipodi-0.dtd"
   xmlns="http://www.w3.org/2000/svg"
   xmlns:svg="http://www.w3.org/2000/svg"><defs
     id="defs5" /><sodipodi:namedview
     id="namedview5"
     pagecolor="#ffffff"
     bordercolor="#000000"
     borderopacity="0.25"
     inkscape:showpageshadow="2"
     inkscape:pageopacity="0.0"
     inkscape:pagecheckerboard="0"
     inkscape:deskcolor="#d1d1d1"
     inkscape:document-units="mm"
     inkscape:zoom="2.2568884"
     inkscape:cx="-54.278272"
     inkscape:cy="-14.843446"
     inkscape:window-width="1718"
     inkscape:window-height="1341"
     inkscape:window-x="-8"
     inkscape:window-y="0"
     inkscape:window-maximized="0"
     inkscape:current-layer="svg5" /><g
     transform="matrix(0.18018231,0,0,0.18028909,-52.701591,-52.03589)"
     id="g5"><g
       transform="translate(222.63,233.77)"
       id="g4"><path
         d="m 88.527,101.63 c -2.8822,-0.52259 -6.6174,-2.1619 -9.049,-3.9713 -1.6355,-1.217 -4.524,-4.2116 -5.6195,-5.8258 -3.1321,-4.6149 -4.4627,-10.218 -3.8545,-16.231 0.95168,-9.4097 7.8649,-17.614 17.013,-20.192 1.3738,-0.38703 2.6542,-0.47855 6.5993,-0.47166 4.823,0.0084 4.9317,0.02118 7.4083,0.87018 5.8658,2.0108 10.413,5.9161 13.342,11.458 2.0626,3.9028 2.3994,5.4412 2.3946,10.94 -0.003,3.7796 -0.1029,5.1143 -0.48257,6.467 -2.1596,7.6945 -8.2413,13.969 -15.916,16.421 -1.5408,0.49231 -2.5857,0.60606 -6.2177,0.67692 -2.4011,0.0468 -4.9296,-0.0171 -5.6189,-0.14206 z m 12.129,-7.9554 c 0.95761,-0.36408 1.4092,-1 1.4194,-1.9991 0.01,-0.96586 -0.55717,-1.5518 -1.9781,-2.0437 -1.1449,-0.39638 -1.6201,-0.95067 -1.3712,-1.5994 0.20806,-0.54221 1.3311,-0.56502 1.7702,-0.03596 0.43515,0.52432 1.0336,0.50448 1.243,-0.04121 0.26812,-0.69872 -0.85003,-1.414 -2.2104,-1.414 -1.9052,0 -3.1079,1.6814 -2.1415,2.9939 0.1819,0.24704 0.92376,0.67371 1.6486,0.94816 1.536,0.5816 1.9888,1.1097 1.4787,1.7244 -0.45113,0.54358 -1.1043,0.53047 -2.1022,-0.04222 -0.57373,-0.32928 -0.88519,-0.37979 -1.0884,-0.17653 -0.43762,0.43762 -0.01323,1.1868 0.89669,1.5829 1.0049,0.43747 1.5,0.45837 2.4352,0.10282 z M 85.47,91.7879 c 0.04275,-1.0434 0.19735,-1.9365 0.34354,-1.9848 0.14619,-0.04824 0.74368,0.77567 1.3278,1.8309 0.87402,1.5791 1.1912,1.9336 1.7925,2.0031 l 0.73057,0.08447 -0.07395,-3.5241 c -0.06135,-2.9232 -0.14162,-3.5241 -0.47083,-3.5241 -0.30358,0 -0.42798,0.44597 -0.52917,1.8971 -0.07276,1.0434 -0.21299,1.9774 -0.31163,2.0755 -0.1893,0.18838 -1.2561,-1.374 -1.9923,-2.9178 -0.48736,-1.022 -1.2277,-1.3951 -1.8098,-0.91196 -0.29583,0.24552 -0.38418,1.0314 -0.38418,3.4173 0,1.7042 0.07937,3.1779 0.17639,3.2749 0.09701,0.09701 0.38945,0.17639 0.64987,0.17639 0.40366,0 0.48494,-0.27972 0.55122,-1.8971 z m 10.264,1.3962 c 0,-0.58861 -0.49453,-0.82206 -1.7414,-0.82206 -0.82107,0 -0.9044,-0.07053 -0.9044,-0.76544 0,-0.83627 0.37523,-1.0866 1.6285,-1.0866 0.611,0 0.77142,-0.1056 0.7034,-0.46302 -0.06083,-0.3197 -0.41492,-0.50397 -1.1439,-0.59531 -0.91449,-0.11459 -1.0558,-0.22081 -1.0558,-0.79375 0,-0.58796 0.13229,-0.67616 1.1906,-0.79375 0.97014,-0.10779 1.1906,-0.23028 1.1906,-0.66146 0,-0.46515 -0.20285,-0.53877 -1.6767,-0.60854 -1.0084,-0.04774 -1.8257,0.04427 -2.0505,0.23083 -0.28304,0.2349 -0.37377,1.0624 -0.37377,3.4087 0,1.7042 0.07937,3.1779 0.17639,3.2749 0.09701,0.09701 1.0495,0.17639 2.1167,0.17639 1.7273,0 1.9403,-0.05497 1.9403,-0.50086 z m -9.2564,-9.884 c 1.6974,-1.1535 2.5348,-3.997 2.3028,-7.8195 -0.23015,-3.7916 -1.6704,-5.6081 -4.4464,-5.6081 -1.4582,0 -2.7408,0.76362 -3.5181,2.0947 -0.66548,1.1395 -0.71314,3.7525 -0.09018,4.9437 0.8151,1.5586 2.6689,2.2561 4.2453,1.5975 0.8019,-0.33506 0.95381,-0.33717 1.0774,-0.015 0.07916,0.20628 0.09807,0.52388 0.04203,0.70578 -0.05604,0.1819 -0.17154,0.64982 -0.25668,1.0398 -0.30298,1.388 -1.7795,2.0536 -2.5352,1.143 -0.44249,-0.53316 -2.3461,-0.53164 -2.5509,0.002 -0.08419,0.2194 0.04759,0.70518 0.29286,1.0795 0.95904,1.4637 3.858,1.9098 5.4371,0.83668 z m -3.0274,-7.2284 c -0.55373,-0.55372 -0.77907,-1.5372 -0.55653,-2.4289 0.62451,-2.5023 3.1831,-2.0238 3.1831,0.59531 0,1.8616 -1.5303,2.9298 -2.6265,1.8336 z m 12.952,7.2904 c 1.0585,-0.65418 1.713,-1.9635 1.713,-3.4266 0,-1.1921 -0.29146,-1.9241 -1.1349,-2.8503 -0.51102,-0.56113 -0.5156,-0.61908 -0.08654,-1.0932 0.71591,-0.79108 1.0198,-2.2575 0.70781,-3.416 -0.41064,-1.525 -1.5675,-2.4877 -3.1751,-2.6422 -1.5966,-0.15341 -2.6945,0.24882 -3.5927,1.3163 -0.85303,1.0138 -0.91096,3.096 -0.12214,4.3898 l 0.53199,0.87256 -0.64299,0.84724 c -1.2624,1.6634 -1.1247,4.1951 0.30042,5.5232 0.94439,0.88009 1.2133,0.96663 3.0818,0.99171 1.1261,0.01511 1.7948,-0.12655 2.4192,-0.51245 z M 92.9438,81.3939 C 91.723,80.1731 92.32442,77.81 93.85586,77.81 c 0.40576,0 0.93479,0.21773 1.1756,0.48385 0.62978,0.6959 0.57717,2.5519 -0.09128,3.2203 -0.69829,0.69829 -1.2086,0.66755 -1.9964,-0.12026 z m 0.14432,-6.2297 c -0.99784,-0.99784 -0.38884,-3.175 0.88813,-3.175 0.87766,0 1.2285,0.5009 1.2285,1.7538 0,1.7735 -1.0556,2.4822 -2.1167,1.4212 z m 9.7896,7.7068 c 0,-1.2147 1.2027,-5.6209 2.246,-8.2288 0.64857,-1.621 0.93367,-2.7201 0.87843,-3.3864 l -0.0818,-0.98646 h -7.1437 v 2.3812 l 1.9841,0.07906 c 1.0912,0.04349 2.0763,0.17126 2.1889,0.28394 0.11269,0.11268 -0.0783,0.85101 -0.42442,1.6407 -1.2747,2.9085 -2.7286,8.2218 -2.3966,8.7588 0.074,0.1197 0.72279,0.21763 1.4418,0.21763 1.2632,0 1.3073,-0.02563 1.3073,-0.75982 z"
         fill="#bdb43d"
         id="path1" /><path
         d="m 88.527,101.63 c -2.8822,-0.52259 -6.6174,-2.1619 -9.049,-3.9713 -1.6355,-1.217 -4.524,-4.2116 -5.6195,-5.8258 -3.1321,-4.6149 -4.4627,-10.218 -3.8545,-16.231 0.95168,-9.4097 7.8649,-17.614 17.013,-20.192 1.3738,-0.38703 2.6542,-0.47855 6.5993,-0.47166 4.823,0.0084 4.9317,0.02118 7.4083,0.87018 5.8658,2.0108 10.413,5.9161 13.342,11.458 2.0626,3.9028 2.3994,5.4412 2.3946,10.94 -0.003,3.7796 -0.1029,5.1143 -0.48257,6.467 -2.1596,7.6945 -8.2413,13.969 -15.916,16.421 -1.5408,0.49231 -2.5857,0.60606 -6.2177,0.67692 -2.4011,0.0468 -4.9296,-0.0171 -5.6189,-0.14206 z m 12.129,-7.9554 c 0.95761,-0.36408 1.4092,-1 1.4194,-1.9991 0.01,-0.96586 -0.55717,-1.5518 -1.9781,-2.0437 -1.1449,-0.39638 -1.6201,-0.95067 -1.3712,-1.5994 0.20806,-0.54221 1.3311,-0.56502 1.7702,-0.03596 0.43515,0.52432 1.0336,0.50448 1.243,-0.04121 0.26812,-0.69872 -0.85003,-1.414 -2.2104,-1.414 -1.9052,0 -3.1079,1.6814 -2.1415,2.9939 0.1819,0.24704 0.92376,0.67371 1.6486,0.94816 1.536,0.5816 1.9888,1.1097 1.4787,1.7244 -0.45113,0.54358 -1.1043,0.53047 -2.1022,-0.04222 -0.57373,-0.32928 -0.88519,-0.37979 -1.0884,-0.17653 -0.43762,0.43762 -0.01323,1.1868 0.89669,1.5829 1.0049,0.43747 1.5,0.45837 2.4352,0.10282 z M 85.47,91.7879 c 0.04275,-1.0434 0.19735,-1.9365 0.34354,-1.9848 0.14619,-0.04824 0.74368,0.77567 1.3278,1.8309 0.87402,1.5791 1.1912,1.9336 1.7925,2.0031 l 0.73057,0.08447 -0.07395,-3.5241 c -0.06135,-2.9232 -0.14162,-3.5241 -0.47083,-3.5241 -0.30358,0 -0.42798,0.44597 -0.52917,1.8971 -0.07276,1.0434 -0.21299,1.9774 -0.31163,2.0755 -0.1893,0.18838 -1.2561,-1.374 -1.9923,-2.9178 -0.48736,-1.022 -1.2277,-1.3951 -1.8098,-0.91196 -0.29583,0.24552 -0.38418,1.0314 -0.38418,3.4173 0,1.7042 0.07937,3.1779 0.17639,3.2749 0.09701,0.09701 0.38945,0.17639 0.64987,0.17639 0.40366,0 0.48494,-0.27972 0.55122,-1.8971 z m 10.264,1.3962 c 0,-0.58861 -0.49453,-0.82206 -1.7414,-0.82206 -0.82107,0 -0.9044,-0.07053 -0.9044,-0.76544 0,-0.83627 0.37523,-1.0866 1.6285,-1.0866 0.611,0 0.77142,-0.1056 0.7034,-0.46302 -0.06083,-0.3197 -0.41492,-0.50397 -1.1439,-0.59531 -0.91449,-0.11459 -1.0558,-0.22081 -1.0558,-0.79375 0,-0.58796 0.13229,-0.67616 1.1906,-0.79375 0.97014,-0.10779 1.1906,-0.23028 1.1906,-0.66146 0,-0.46515 -0.20285,-0.53877 -1.6767,-0.60854 -1.0084,-0.04774 -1.8257,0.04427 -2.0505,0.23083 -0.28304,0.2349 -0.37377,1.0624 -0.37377,3.4087 0,1.7042 0.07937,3.1779 0.17639,3.2749 0.09701,0.09701 1.0495,0.17639 2.1167,0.17639 1.7273,0 1.9403,-0.05497 1.9403,-0.50086 z m -9.2564,-9.884 c 1.6974,-1.1535 2.5348,-3.997 2.3028,-7.8195 -0.23015,-3.7916 -1.6704,-5.6081 -4.4464,-5.6081 -1.4582,0 -2.7408,0.76362 -3.5181,2.0947 -0.66548,1.1395 -0.71314,3.7525 -0.09018,4.9437 0.8151,1.5586 2.6689,2.2561 4.2453,1.5975 0.8019,-0.33506 0.95381,-0.33717 1.0774,-0.015 0.07916,0.20628 0.09807,0.52388 0.04203,0.70578 -0.05604,0.1819 -0.17154,0.64982 -0.25668,1.0398 -0.30298,1.388 -1.7795,2.0536 -2.5352,1.143 -0.44249,-0.53316 -2.3461,-0.53164 -2.5509,0.002 -0.08419,0.2194 0.04759,0.70518 0.29286,1.0795 0.95904,1.4637 3.858,1.9098 5.4371,0.83668 z m -3.0274,-7.2284 c -0.55373,-0.55372 -0.77907,-1.5372 -0.55653,-2.4289 0.62451,-2.5023 3.1831,-2.0238 3.1831,0.59531 0,1.8616 -1.5303,2.9298 -2.6265,1.8336 z m 12.952,7.2904 c 1.0585,-0.65418 1.713,-1.9635 1.713,-3.4266 0,-1.1921 -0.29146,-1.9241 -1.1349,-2.8503 -0.51102,-0.56113 -0.5156,-0.61908 -0.08654,-1.0932 0.71591,-0.79108 1.0198,-2.2575 0.70781,-3.416 -0.41064,-1.525 -1.5675,-2.4877 -3.1751,-2.6422 -1.5966,-0.15341 -2.6945,0.24882 -3.5927,1.3163 -0.85303,1.0138 -0.91096,3.096 -0.12214,4.3898 l 0.53199,0.87256 -0.64299,0.84724 c -1.2624,1.6634 -1.1247,4.1951 0.30042,5.5232 0.94439,0.88009 1.2133,0.96663 3.0818,0.99171 1.1261,0.01511 1.7948,-0.12655 2.4192,-0.51245 z M 92.9438,81.3939 C 91.723,80.1731 92.32442,77.81 93.85586,77.81 c 0.40576,0 0.93479,0.21773 1.1756,0.48385 0.62978,0.6959 0.57717,2.5519 -0.09128,3.2203 -0.69829,0.69829 -1.2086,0.66755 -1.9964,-0.12026 z m 0.14432,-6.2297 c -0.99784,-0.99784 -0.38884,-3.175 0.88813,-3.175 0.87766,0 1.2285,0.5009 1.2285,1.7538 0,1.7735 -1.0556,2.4822 -2.1167,1.4212 z m 9.7896,7.7068 c 0,-1.2147 1.2027,-5.6209 2.246,-8.2288 0.64857,-1.621 0.93367,-2.7201 0.87843,-3.3864 l -0.0818,-0.98646 h -7.1437 v 2.3812 l 1.9841,0.07906 c 1.0912,0.04349 2.0763,0.17126 2.1889,0.28394 0.11269,0.11268 -0.0783,0.85101 -0.42442,1.6407 -1.2747,2.9085 -2.7286,8.2218 -2.3966,8.7588 0.074,0.1197 0.72279,0.21763 1.4418,0.21763 1.2632,0 1.3073,-0.02563 1.3073,-0.75982 z m -25.449,-6.46 c 0.05684,-0.29305 -0.18912,-0.49968 -0.77575,-0.65169 -1.234,-0.31975 -1.227,-0.77864 0.01737,-1.1515 1.359,-0.40717 1.8366,-0.91881 1.3139,-1.4075 -0.47019,-0.43957 -2.7736,-1.2112 -3.6157,-1.2112 -0.94628,0 -0.65145,0.85208 0.39908,1.1534 0.47194,0.13535 0.85808,0.33206 0.85808,0.43713 0,0.10507 -0.59531,0.43843 -1.3229,0.74081 -1.6905,0.70253 -1.8285,1.4853 -0.33073,1.8756 0.5457,0.14223 1.4089,0.37362 1.9182,0.5142 1.1335,0.31286 1.4309,0.255 1.5384,-0.29932 z m 34.643,-0.34647 c 0.6755,-0.43504 0.72328,-0.80871 0.28885,-2.2587 -0.33397,-1.1147 -0.48417,-1.1645 -2.2042,-0.73142 -1.9501,0.49103 -1.7317,1.5552 0.24308,1.1847 0.57799,-0.10843 0.97307,-0.05679 1.0968,0.14336 0.24678,0.39929 -0.5949,1.0263 -1.3777,1.0263 -0.69477,0 -1.0036,0.38342 -0.77944,0.96763 0.18764,0.48899 1.7533,0.29885 2.7326,-0.33185 z m -1.4873,-3.7861 c 0.0915,-0.01357 0.30522,-0.35996 0.47497,-0.76977 0.79059,-1.9087 -1.3284,-3.5084 -2.8071,-2.1192 -0.64943,0.61011 -0.8038,1.7476 -0.35179,2.5922 0.23685,0.44256 1.0755,0.53528 2.6839,0.29674 z m -31.843,-0.5732 c 0.08487,-0.4407 -2.4418,-1.801 -2.758,-1.4848 -0.09517,0.09517 -0.31643,-0.02304 -0.49168,-0.26271 -0.18816,-0.25732 -0.49681,-0.36738 -0.75377,-0.26878 -0.54371,0.20864 -0.56524,0.68872 -0.03826,0.85335 0.67648,0.21134 1.0225,0.38435 2.1167,1.0582 1.1525,0.70981 1.8017,0.74513 1.925,0.10473 z m 1.0144,-1.3505 c 0.11498,-0.18604 -0.15931,-0.60528 -0.68091,-1.0407 -0.57835,-0.48283 -0.81837,-0.87273 -0.71041,-1.1541 0.14385,-0.37486 0.28667,-0.35371 1.2136,0.17974 0.82768,0.47636 1.1191,0.53601 1.3739,0.28122 0.63874,-0.63874 -1.6545,-2.3813 -2.698,-2.0501 -0.41891,0.13296 -1.5698,1.8502 -1.5698,2.3422 0,0.22635 2.2208,1.7532 2.5501,1.7532 0.18102,0 0.41578,-0.14019 0.52168,-0.31154 z m 29.286,-1.853 c 1.1063,-0.43513 0.83335,-1.1586 -0.40953,-1.0856 -0.93663,0.05501 -0.96159,0.03385 -0.68261,-0.57844 0.31027,-0.68097 0.14791,-1.463 -0.30373,-1.463 -0.4336,0 -1.6967,2.7874 -1.4979,3.3055 0.14061,0.36644 0.3703,0.42255 1.1646,0.2845 0.54417,-0.09458 1.3223,-0.30291 1.7292,-0.46297 z m -26.272,-1.8042 c 0.29104,-0.29104 0.52917,-0.6412 0.52917,-0.77814 0,-0.42164 -0.5589,-0.62089 -0.86972,-0.31006 -0.16194,0.16195 -0.41215,0.29445 -0.556,0.29445 -0.14386,0 -9.81e-4,-0.24276 0.3175,-0.53947 0.74035,-0.68974 0.72855,-0.93788 -0.06945,-1.4607 -0.7883,-0.51652 -1.5933,-0.31061 -2.1586,0.55212 -1.1303,1.7251 1.3461,3.7028 2.8071,2.2418 z m 22.49,-0.03698 c 0,-0.16586 -0.20818,-0.45378 -0.46261,-0.63983 -0.25443,-0.18604 -0.37422,-0.42664 -0.2662,-0.53466 0.10802,-0.10802 0.41486,0.0013 0.68187,0.24295 0.6127,0.55448 1.2655,0.56371 1.4738,0.02084 0.51556,-1.3435 -0.42174,-2.6184 -1.7836,-2.4258 -0.45869,0.06484 -1.0423,0.20831 -1.297,0.31881 -0.33491,0.14533 -0.46302,0.08031 -0.46302,-0.23498 0,-0.23974 -0.25943,-0.7868 -0.57652,-1.2157 -0.64349,-0.87037 -0.46709,-1.3342 0.32038,-0.84242 0.73129,0.4567 1.0499,0.398 1.0499,-0.19345 0,-0.59453 -0.93996,-1.3379 -1.6917,-1.3379 -0.71327,0 -1.4833,0.75822 -1.4833,1.4605 0,0.32162 0.25345,0.90697 0.56321,1.3008 0.41117,0.52272 0.48429,0.79494 0.27084,1.0084 -0.21345,0.21345 -0.42469,0.17264 -0.78249,-0.15116 -1.0785,-0.976 -1.5772,-0.11171 -0.51458,0.89182 0.48345,0.45658 0.8066,0.53404 1.7198,0.41224 1.078,-0.14377 1.1245,-0.12095 1.1245,0.55173 0,0.38594 0.19705,0.91944 0.43788,1.1856 0.48124,0.53176 1.6788,0.6618 1.6788,0.18229 z m -19.57,-1.9519 c 2.0352,-1.0313 1.5047,-1.9649 -0.60411,-1.063 -0.7423,0.31746 -0.56696,-0.52338 0.21614,-1.0365 0.53359,-0.34962 0.61435,-0.5231 0.37678,-0.80935 -0.23512,-0.2833 -0.4453,-0.29923 -0.94487,-0.07161 -0.87747,0.3998 -1.1735,0.0072 -0.44181,-0.58601 0.62223,-0.50448 0.80829,-1.3239 0.30061,-1.3239 -0.68034,0 -2.3511,1.1792 -2.3511,1.6594 0,0.47956 1.7679,3.8969 2.0159,3.8969 0.06507,0 0.70967,-0.29966 1.4324,-0.66592 z m 6.2056,-0.70166 c 0.69475,-0.54649 0.72346,-0.65819 0.60276,-2.3452 -0.06971,-0.97425 -0.21036,-1.9067 -0.31255,-2.072 -0.1022,-0.16536 -0.69612,-0.30066 -1.3198,-0.30066 -1.2529,0 -1.8521,0.45932 -2.1485,1.647 -0.24263,0.97224 1.0703,2.3746 1.9964,2.1324 0.42045,-0.10995 0.54829,-0.06467 0.41703,0.14771 -0.1041,0.16844 -0.47991,0.30626 -0.83512,0.30626 -0.67689,0 -0.90681,0.64435 -0.31511,0.8831 0.67253,0.27137 1.2038,0.1608 1.9149,-0.39859 z m -1.8779,-2.4493 c -0.24072,-0.6273 0.09988,-1.2608 0.62362,-1.16 0.2929,0.05641 0.46382,0.3304 0.46382,0.74354 0,0.75423 -0.8351,1.074 -1.0874,0.41643 z m -1.518,1.558 c 0.1734,-0.45188 -0.59172,-2.6688 -1.0104,-2.9276 -0.56862,-0.35143 -0.79021,0.34984 -0.47867,1.5148 0.45437,1.6991 1.1323,2.3423 1.489,1.4127 z m 10.54,0.14774 c 0.08808,-0.14251 0.03284,-0.49697 -0.12274,-0.78769 -0.22676,-0.4237 -0.17363,-0.63782 0.26778,-1.0792 0.48497,-0.48496 0.51481,-0.65929 0.25013,-1.4613 -0.33269,-1.0081 -0.76332,-1.1481 -1.3766,-0.44759 -0.47521,0.54274 -0.75821,3.0007 -0.4159,3.6124 0.2611,0.46657 1.1461,0.57002 1.3974,0.16336 z m -2.4062,-0.68857 c 0.08833,-0.23018 0.1606,-0.87652 0.1606,-1.4363 0,-1.1031 -0.53434,-1.8493 -1.3242,-1.8493 -0.3408,0 -0.5185,-0.22432 -0.57641,-0.7276 -0.06,-0.52143 -0.23263,-0.7276 -0.60924,-0.7276 -0.43494,0 -0.56203,0.25084 -0.73731,1.4552 -0.28487,1.9574 -0.15715,3.3073 0.31291,3.3073 0.20928,0 0.50333,-0.46451 0.66994,-1.0583 0.38129,-1.359 1.1068,-1.4649 0.99945,-0.14587 -0.04085,0.50185 -0.01483,1.0674 0.05784,1.2568 0.18368,0.47866 0.85251,0.43123 1.0465,-0.07421 z m -9.3644,-3.4336 c 0,-0.20969 -0.17859,-0.38126 -0.39688,-0.38126 -0.39852,0 -0.5439,0.55853 -0.22768,0.87475 0.24692,0.24692 0.62455,-0.05147 0.62455,-0.49349 z"
         fill="#6190af"
         id="path2" /><path
         d="m 88.193,101.26 c -3.0451,-0.79997 -4.4069,-1.3101 -6.2155,-2.3285 -9.702,-5.4629 -14.27,-17.31 -10.734,-27.841 2.1874,-6.5161 6.2893,-11.168 12.401,-14.063 8.8832,-4.2085 19.753,-2.1721 26.538,4.9716 3.3135,3.4886 5.123,6.9384 6.2047,11.829 1.6393,7.4116 -1.1724,16.164 -6.9396,21.602 -4.3179,4.0713 -9.4605,6.171 -15.566,6.356 -2.8387,0.086 -3.6447,0.0115 -5.6885,-0.52539 z m -2.5618,-7.3812 c 0.15463,-0.18631 0.31803,-0.98998 0.36313,-1.7859 l 0.08199,-1.4472 0.89283,1.6463 c 0.92556,1.7066 1.4674,2.0879 2.5731,1.8104 l 0.64959,-0.16304 -0.14674,-7.5269 H 88.193 l -0.13229,1.7198 -0.13229,1.7198 -0.92604,-1.7198 c -0.9023,-1.6757 -0.95318,-1.7198 -1.9844,-1.7198 h -1.0583 l -0.07391,3.6838 c -0.07637,3.8065 -7.63e-4,4.1077 1.0337,4.1174 0.23684,0.0022 0.55714,-0.14839 0.71176,-0.3347 z m 10.355,-0.04356 c 0.17451,-0.21027 0.27839,-0.65676 0.23084,-0.99219 -0.07402,-0.52217 -0.2767,-0.6289 -1.4094,-0.74217 -0.94074,-0.09408 -1.3229,-0.24694 -1.3229,-0.52917 0,-0.26176 0.31526,-0.42444 0.92604,-0.47783 1.0316,-0.09018 1.6349,-0.66902 1.3902,-1.3338 -0.23073,-0.62683 -0.61096,-0.82552 -1.5886,-0.83013 -0.47294,-0.0022 -0.8599,-0.12311 -0.8599,-0.26864 0,-0.14553 0.45349,-0.26458 1.0078,-0.26458 1.2905,0 1.9805,-0.49578 1.8616,-1.3377 C 96.1328,86.4279 96.07351,86.4124 93.74938,86.4124 h -2.3812 l -0.07391,3.6838 c -0.05557,2.7695 0.0101,3.7371 0.26458,3.8986 0.61001,0.3871 4.0775,0.26225 4.4274,-0.15941 z m 5.7019,-0.25636 c 0.8225,-0.8225 1.0654,-1.8228 0.67271,-2.7707 -0.31669,-0.76456 -0.66956,-1.0112 -2.479,-1.7326 -0.55618,-0.22176 -0.9361,-0.52475 -0.84428,-0.67332 0.21909,-0.3545 1.0126,-0.34575 1.3735,0.01514 0.42145,0.42145 1.7858,0.18884 1.8824,-0.32093 0.0451,-0.2379 -0.2115,-0.77368 -0.57014,-1.1906 -0.57085,-0.66365 -0.83355,-0.75809 -2.1089,-0.75809 -1.8532,0 -2.8223,0.76785 -2.8223,2.2362 0,1.3272 0.57586,2.0145 2.1168,2.5263 0.72753,0.24164 1.3228,0.59846 1.3228,0.79292 0,0.59464 -0.61418,0.61355 -1.6081,0.04952 -0.52601,-0.29852 -1.1432,-0.46177 -1.3891,-0.36742 -0.65432,0.25108 -0.54218,1.4336 0.20698,2.1828 0.53464,0.53464 0.9109,0.64943 2.1287,0.64943 1.211,0 1.5951,-0.11581 2.1179,-0.63867 z m -15.964,-9.4234 c 1.1848,-0.32908 2.4663,-1.7286 2.896,-3.1627 0.40226,-1.3426 0.6559,-1.3477 0.83442,-0.01678 0.28492,2.1242 2.0448,3.452 4.5755,3.452 3.7665,0 5.9982,-4.3504 3.6582,-7.1312 l -0.64665,-0.7685 0.53579,-0.8788 c 0.29468,-0.48334 0.53623,-1.2658 0.53678,-1.7387 l 9.89e-4,-0.8599 h 2.101101 c 1.1556,0 2.1595,0.09457 2.2309,0.21015 0.0714,0.11558 -0.0951,0.71271 -0.37013,1.3269 -1.0491,2.3433 -2.155901,6.2978 -2.198601,7.8556 l -0.0435,1.5875 1.447201,0.08199 c 1.6552,0.09377 2.1247,-0.27694 2.1247,-1.6777 0,-1.2887 0.92897,-4.6209 2.1262,-7.6266 0.77559,-1.9472 1.0618,-3.0232 1.0013,-3.7637 l -0.0848,-1.0369 -4.0281,-0.073 c -4.470901,-0.08102 -4.053101,-0.23957 -4.375401,1.6605 -0.07683,0.45298 -0.15346,0.40927 -0.53225,-0.30363 -0.2706,-0.50928 -0.91555,-1.0618 -1.6602,-1.4223 -3.7622,-1.8213 -7.5765,1.9666 -5.6956,5.656 l 0.50946,0.99928 -0.6569,0.968 c -0.3613,0.5324 -0.67985,0.99087 -0.7079,1.0188 -0.02805,0.02795 -0.06223,-0.98256 -0.07596,-2.2456 -0.04071,-3.7452 -0.98338,-5.7093 -3.1344,-6.5308 -1.6419,-0.62703 -3.308,-0.35345 -4.5641,0.74944 -1.222,1.0729 -1.6692,2.1669 -1.6692,4.0829 0,1.8387 0.59998,3.1155 1.879,3.9987 0.7677,0.53015 1.1239,0.6013 2.4363,0.48668 l 1.5372,-0.13425 -0.17756,0.83624 c -0.19572,0.92172 -0.82022,1.7623 -1.3093,1.7623 -0.17317,0 -0.54137,-0.25029 -0.81821,-0.5562 -0.40893,-0.45187 -0.71872,-0.53192 -1.6515,-0.42678 -1.5114,0.17035 -1.7968,0.47387 -1.3837,1.4713 0.81556,1.9689 2.9367,2.8207 5.353,2.1496 z m 7.4282,-2.9441 c -0.34566,-0.34566 -0.44133,-1.7388 -0.16827,-2.4504 0.26794,-0.69823 1.65,-0.53438 2.0016,0.23729 0.45471,0.99798 -0.01685,2.3658 -0.8496,2.4644 -0.36019,0.04263 -0.80289,-0.07048 -0.98377,-0.25135 z m -9.2943,-5.4174 c -1.081,-0.75713 -0.59588,-3.2723 0.63108,-3.2723 0.72472,0 1.1906,0.67297 1.1906,1.7198 0,1.4702 -0.87484,2.2157 -1.8217,1.5525 z m 9.4064,-0.80288 c -0.3215,-0.3215 -0.18265,-2.1349 0.18695,-2.4416 0.89612,-0.74371 1.8341,0.72343 1.2634,1.9761 -0.2754,0.60444 -1.0597,0.8562 -1.4504,0.46556 z m -15.522,1.448 c 0,-0.33908 -0.27996,-0.62952 -0.79375,-0.82345 -1.026,-0.38727 -1.0013,-0.60324 0.11113,-0.97036 1.2217,-0.4032 1.6693,-0.96025 1.2767,-1.5889 -0.24756,-0.39641 -0.20999,-0.50424 0.21436,-0.6152 0.34281,-0.08965 0.51453,-0.36358 0.51453,-0.82078 0,-0.41017 0.14827,-0.68623 0.36857,-0.68623 0.20271,0 0.44885,-0.20836 0.54698,-0.46302 0.12845,-0.33337 -0.0956,-0.69343 -0.80013,-1.2859 -1.1158,-0.93822 -0.81755,-1.5441 0.3197,-0.64956 0.38202,0.3005 0.90392,0.54636 1.1598,0.54636 0.50903,0 0.84537,-0.59674 0.63918,-1.1341 -0.08052,-0.20984 0.19939,-0.43806 0.73016,-0.59531 0.5078,-0.15044 1.0258,-0.55949 1.2634,-0.99755 0.37066,-0.68358 0.36376,-0.77147 -0.08689,-1.1069 -0.26923,-0.20038 -0.41697,-0.48172 -0.3283,-0.62519 0.27094,-0.43838 -0.627,-1.0973 -1.4954,-1.0973 -1.1529,0 -1.7879,0.66611 -1.7879,1.8754 0,0.92812 -0.05406,0.99809 -0.75562,0.97815 -1.0126,-0.02879 -1.2709,0.16582 -1.9272,1.4523 l -0.55858,1.0949 1.0254,0.86757 c 0.56396,0.47716 0.95063,0.86934 0.85926,0.87151 -0.19915,0.0047 -1.9854,-0.69914 -2.7852,-1.0975 -0.68227,-0.3398 -1.1497,-0.10892 -1.1497,0.56786 0,0.34116 0.5278,0.76168 1.7093,1.3619 0.94013,0.47757 1.6728,0.9048 1.6282,0.94942 -0.04461,0.04461 -0.87029,-0.12587 -1.8348,-0.37885 -1.4053,-0.36859 -1.8196,-0.3941 -2.0853,-0.1284 -0.43914,0.43914 0.03127,1.212 0.80804,1.3276 0.84925,0.12635 0.69412,0.39987 -0.55619,0.98063 -0.88377,0.41051 -1.1245,0.66391 -1.1245,1.1838 0,0.60411 0.1835,0.70964 2.1167,1.2173 2.322,0.60976 2.7781,0.57524 2.7781,-0.21025 z m 34.344,-0.12184 c 0.86838,-0.55116 0.9668,-1.0116 0.51753,-2.4211 -0.31414,-0.9856 -0.53826,-1.2695 -1.0849,-1.3745 -0.53661,-0.10303 -0.63299,-0.22007 -0.43576,-0.52917 0.50544,-0.79215 0.29285,-2.1095 -0.46095,-2.8563 -0.39725,-0.39357 -0.68766,-0.87324 -0.64535,-1.0659 0.12969,-0.59067 -0.52889,-1.1511 -1.1651,-0.99139 -0.52142,0.13087 -0.58324,0.05105 -0.5488,-0.70853 0.0283,-0.62452 -0.10428,-0.91966 -0.49035,-1.0914 -0.29104,-0.12946 -0.70776,-0.60639 -0.92604,-1.0598 -0.49442,-1.0271 -1.568,-1.4457 -2.6553,-1.0353 -0.50813,0.1918 -0.78425,0.20205 -0.78425,0.02912 0,-0.1468 -0.24623,-0.6127 -0.54718,-1.0354 -0.53298,-0.74849 -0.38817,-1.0688 0.2119,-0.46873 0.42749,0.42749 1.129,0.0796 1.129,-0.55988 0,-0.58082 -1.3836,-1.5892 -2.1828,-1.5909 -0.66249,-0.0014 -1.5214,0.94877 -1.5214,1.6831 0,0.34418 0.2517,0.94576 0.55933,1.3368 0.64627,0.8216 0.4702,1.2432 -0.24782,0.59339 -0.26701,-0.24164 -0.73125,-0.43935 -1.0316,-0.43935 -0.79641,0 -1.0285,-0.84183 -0.3554,-1.289 0.65562,-0.43558 0.67763,-0.74779 0.13011,-1.8453 -0.50554,-1.0134 -0.79716,-1.0383 -1.7268,-0.14766 l -0.7168,0.68674 -0.55445,-0.55445 c -0.30495,-0.30495 -0.79257,-0.55445 -1.0836,-0.55445 -0.41157,0 -0.52917,-0.17639 -0.52917,-0.79375 0,-0.66082 -0.10604,-0.79375 -0.63315,-0.79375 -0.71178,0 -0.95435,0.43422 -0.95435,1.7084 0,1.4199 -0.30506,2.6216 -0.56246,2.2156 -0.12276,-0.19364 -0.22501,-0.66491 -0.22724,-1.0473 -0.0055,-0.94757 -0.46337,-1.2525 -1.7786,-1.1846 -1.1348,0.05857 -2.1942,0.73046 -2.1942,1.3917 0,0.9276 -0.58338,0.13603 -1.1514,-1.5624 -0.18622,-0.55676 -0.92412,-0.61341 -1.1263,-0.08648 -0.07947,0.2071 0.04333,1.1097 0.27289,2.0057 0.53449,2.0863 0.53184,2.1156 -0.19116,2.1156 -0.3347,0 -0.74943,0.14089 -0.92163,0.31309 -0.1722,0.1722 -0.38834,0.23784 -0.48032,0.14586 -0.09198,-0.09198 0.1589,-0.44775 0.5575,-0.79062 0.68096,-0.58573 0.69767,-0.65044 0.27674,-1.0714 -0.35094,-0.35094 -0.56356,-0.38614 -0.98144,-0.1625 -0.2934,0.15702 -0.59298,0.22596 -0.66574,0.1532 -0.07276,-0.07276 0.11603,-0.26519 0.41954,-0.42762 0.63017,-0.33726 0.73886,-1.2799 0.17264,-1.4972 -0.48867,-0.18752 -2.7958,1.1581 -2.7958,1.6306 0,0.50946 1.5772,3.7498 1.9932,4.0951 0.25695,0.21325 0.68794,0.1142 1.6713,-0.38412 0.7288,-0.36931 1.4001,-0.7928 1.4917,-0.94109 0.09165,-0.14829 0.39098,-0.26961 0.66518,-0.26961 0.2742,0 0.67974,-0.25869 0.9012,-0.57486 0.41777,-0.59645 0.54762,-0.47702 0.73635,0.67729 0.1998,1.222 2.7161,0.92917 3.2077,-0.37331 0.2206,-0.58444 0.42098,-0.73964 0.83126,-0.64384 0.78542,0.1834 1.1473,-0.16028 1.2467,-1.1839 0.04822,-0.49684 0.25425,-0.95813 0.45784,-1.0251 0.29363,-0.09655 0.33504,0.09802 0.20025,0.94092 -0.21202,1.3259 0.32672,1.9642 1.1984,1.4198 0.46206,-0.28856 0.59026,-0.25579 0.93724,0.23959 0.29933,0.42735 0.59988,0.54483 1.1771,0.4601 0.54166,-0.0795 0.84759,0.02152 1.0155,0.33535 0.33535,0.62661 1.7074,1.1435 2.5044,0.94351 0.55118,-0.13834 0.6666,-0.07272 0.6666,0.37893 0,1.2118 2.1684,2.4432 2.5502,1.4482 0.14941,-0.38936 0.88943,-0.57009 0.88943,-0.21722 0,0.09881 -0.14015,0.56722 -0.31144,1.0409 -0.41219,1.1399 0.0717,1.8039 1.1565,1.587 0.719,-0.1438 1.0162,0.16702 0.47784,0.49974 -0.41368,0.25566 -0.31041,1.8012 0.16577,2.481 0.33819,0.48284 0.59316,0.58185 1.1906,0.46236 0.85134,-0.17027 1.0583,0.22423 0.23111,0.44055 -0.3657,0.09563 -0.52917,0.3609 -0.52917,0.8587 0,0.71139 0.0164,0.71814 1.3229,0.54482 0.86979,-0.11538 1.3229,-0.0789 1.3229,0.10651 0,0.29531 -0.18592,0.38135 -1.4004,0.64805 -0.79907,0.17548 -1.1324,0.69291 -0.87629,1.3603 0.12845,0.33474 0.38941,0.3833 1.2851,0.23916 0.61814,-0.09948 1.3982,-0.35496 1.7334,-0.56774 z m -14.978,-14.776 c 0.0054,-0.43656 0.06469,-0.58312 0.13177,-0.32569 0.06708,0.25743 0.06267,0.61462 -0.0098,0.79375 -0.07247,0.17913 -0.12736,-0.03149 -0.12197,-0.46806 z m -6.9307,-0.39688 c 0,-0.29398 0.17639,-0.52917 0.39688,-0.52917 0.22049,0 0.39688,0.23518 0.39688,0.52917 0,0.29398 -0.17639,0.52917 -0.39688,0.52917 -0.22049,0 -0.39688,-0.23518 -0.39688,-0.52917 z"
         fill="#0d5f98"
         id="path3" /><path
         d="m 88.193,101.26 c -3.0451,-0.79997 -4.4069,-1.3101 -6.2155,-2.3285 -9.702,-5.4629 -14.27,-17.31 -10.734,-27.841 2.1874,-6.5161 6.2893,-11.168 12.401,-14.063 8.8832,-4.2085 19.753,-2.1721 26.538,4.9716 3.3135,3.4886 5.123,6.9384 6.2047,11.829 1.6393,7.4116 -1.1724,16.164 -6.9396,21.602 -4.3179,4.0713 -9.4605,6.171 -15.566,6.356 -2.8387,0.086 -3.6447,0.0115 -5.6885,-0.52539 z m 10.62,-1.4846 c 7.1661,-1.7948 13.153,-7.404 15.533,-14.554 2.7192,-8.1678 0.36812,-17.264 -5.9888,-23.171 -2.9226,-2.7157 -5.6793,-4.2225 -9.745,-5.3268 -2.3607,-0.64118 -8.4245,-0.63277 -10.816,0.015 -7.7619,2.1025 -13.838,8.29 -15.887,16.18 -0.78356,3.0161 -0.79046,7.3976 -0.01669,10.583 2.9224,12.032 14.914,19.281 26.921,16.274 z"
         fill="#253e49"
         id="path4" /></g></g></svg>
